<svg width="580" height="532" viewBox="0 0 580 532" fill="none" xmlns="http://www.w3.org/2000/svg">
<g clip-path="url(#clip0_4_2)">
<path d="M346.471 104L573.294 264.582C575.485 266.154 577.297 268.399 578.549 271.092C579.802 273.785 580.45 276.832 580.43 279.926C580.409 283.021 579.72 286.055 578.432 288.723C577.144 291.391 575.302 293.6 573.091 295.128L295.431 484.227C292.076 486.513 288.301 487.732 284.456 487.772C280.612 487.812 276.821 486.672 273.434 484.456L60.0955 344.82C57.3836 343.028 55.1122 340.39 53.5143 337.177C51.9163 333.964 51.0493 330.291 51.002 326.536C50.9548 322.781 51.7291 319.078 53.2455 315.807C54.762 312.536 56.966 309.814 59.6315 307.922L346.471 104Z" fill="#AAACF9"/>
<path opacity="0.32" d="M222.067 210.026L135.633 275.547L153.497 300.675L247.442 230.09C237.8 222.113 230.477 219.908 222.067 210.026Z" fill="url(#paint0_linear_4_2)"/>
<path d="M231.783 217.102L245.645 225.219C246.165 225.526 246.607 225.999 246.924 226.588C247.24 227.177 247.419 227.86 247.442 228.563C247.464 229.266 247.329 229.964 247.051 230.581C246.772 231.198 246.361 231.711 245.862 232.066L213.005 255.412C212.29 255.939 211.433 256.102 210.62 255.868C209.806 255.634 209.101 255.02 208.655 254.159L200.666 239.054" fill="#56403D"/>
<path d="M162.806 173.392L273.369 95.8887C274.129 95.3543 274.992 95.0737 275.87 95.0753C276.748 95.0769 277.611 95.3607 278.37 95.8978C279.129 96.435 279.758 97.2065 280.194 98.1345C280.629 99.0624 280.856 100.114 280.851 101.183V181.827C280.851 182.714 280.66 183.585 280.296 184.353C279.932 185.122 279.408 185.76 278.777 186.203L160.95 268.929C160.543 269.219 160.081 269.373 159.61 269.375C159.138 269.376 158.675 269.226 158.267 268.939C157.859 268.652 157.521 268.239 157.286 267.741C157.052 267.244 156.93 266.679 156.934 266.106V185.815C156.93 183.299 157.471 180.826 158.502 178.645C159.533 176.465 161.017 174.653 162.806 173.392V173.392Z" fill="#68E1FD"/>
<path d="M273.354 101.977L166.155 177.044C165.01 177.845 164.059 178.999 163.397 180.39C162.735 181.781 162.386 183.36 162.385 184.968V245.424C162.386 246.002 162.511 246.57 162.749 247.071C162.987 247.571 163.328 247.987 163.739 248.276C164.15 248.566 164.617 248.719 165.092 248.72C165.567 248.721 166.033 248.571 166.446 248.283L275.775 171.927C276.184 171.642 276.524 171.231 276.761 170.735C276.997 170.24 277.123 169.677 277.124 169.104V104.641C277.123 104.104 277.007 103.577 276.787 103.112C276.566 102.647 276.25 102.26 275.868 101.991C275.487 101.721 275.054 101.578 274.613 101.575C274.171 101.573 273.737 101.711 273.354 101.977V101.977Z" fill="white"/>
<path d="M231.029 213.314C231.308 211.554 230.507 209.886 229.241 209.589C227.975 209.292 226.723 210.479 226.444 212.24C226.166 214.001 226.966 215.669 228.232 215.966C229.498 216.262 230.75 215.075 231.029 213.314Z" fill="#AB643C"/>
<path d="M170.52 180.433C171.169 180.433 171.695 179.745 171.695 178.897C171.695 178.049 171.169 177.362 170.52 177.362C169.871 177.362 169.346 178.049 169.346 178.897C169.346 179.745 169.871 180.433 170.52 180.433Z" fill="#659FE4"/>
<path d="M174.246 178.174C174.895 178.174 175.421 177.486 175.421 176.639C175.421 175.791 174.895 175.103 174.246 175.103C173.598 175.103 173.072 175.791 173.072 176.639C173.072 177.486 173.598 178.174 174.246 178.174Z" fill="#C5E9FF"/>
<path opacity="0.32" d="M324.568 131.305L266.365 173.85L294.742 194.197L349.958 155.128C340.243 147.116 332.978 141.187 324.568 131.305Z" fill="url(#paint1_linear_4_2)"/>
<path opacity="0.32" d="M376.26 265.082L305.022 306.993L384.641 373.167L439.858 334.097C430.143 326.086 384.656 274.964 376.26 265.082Z" fill="url(#paint2_linear_4_2)"/>
<path opacity="0.32" d="M226.403 324.798L142.492 389.031L251.662 473.522L323.35 415.818C313.635 407.807 234.799 334.68 226.403 324.798Z" fill="url(#paint3_linear_4_2)"/>
<path opacity="0.32" d="M131.254 323.721L73.051 366.267L101.427 386.613L156.6 347.544C146.928 339.533 139.664 333.603 131.254 323.721Z" fill="url(#paint4_linear_4_2)"/>
<path d="M99.876 334.327C100.239 335.033 128.354 354.197 128.354 354.197L147.813 340.909L156.629 334.662L145.783 327.004L128.267 314.651L99.876 334.327Z" fill="#967371"/>
<path d="M128.354 354.197V367.467L156.629 347.544V334.662L128.354 354.197Z" fill="#56403D"/>
<path d="M99.876 334.327V347.562L128.354 367.467V354.197L99.876 334.327Z" fill="#56403D"/>
<path d="M128.992 341.721C134.99 341.721 139.853 338.418 139.853 334.345C139.853 330.271 134.99 326.968 128.992 326.968C122.994 326.968 118.132 330.271 118.132 334.345C118.132 338.418 122.994 341.721 128.992 341.721Z" fill="#56403D"/>
<path d="M131.254 295.54C131.254 294.127 130.316 292.981 129.159 292.981C128.002 292.981 127.064 294.127 127.064 295.54V333.956C127.064 335.369 128.002 336.515 129.159 336.515C130.316 336.515 131.254 335.369 131.254 333.956V295.54Z" fill="#6D5351"/>
<path d="M129.166 304.24C135.428 304.24 140.505 298.062 140.505 290.44C140.505 282.819 135.428 276.641 129.166 276.641C122.904 276.641 117.827 282.819 117.827 290.44C117.827 298.062 122.904 304.24 129.166 304.24Z" fill="#ED1C24"/>
<path d="M129.514 276.588C130.991 278.258 132.174 280.274 132.994 282.515C133.814 284.756 134.253 287.176 134.285 289.629C134.441 292.806 133.659 295.947 132.08 298.484C130.5 301.021 128.227 302.787 125.672 303.463C127.215 304.078 128.85 304.281 130.464 304.059C132.078 303.837 133.634 303.195 135.026 302.176C136.418 301.158 137.614 299.787 138.532 298.156C139.45 296.526 140.07 294.674 140.348 292.727C140.627 290.779 140.558 288.782 140.146 286.869C139.734 284.957 138.989 283.175 137.961 281.645C136.934 280.114 135.647 278.87 134.19 277.997C132.732 277.125 131.138 276.644 129.514 276.588V276.588Z" fill="#E01B2A"/>
<path d="M124.207 283.258C123.068 284.43 122.193 285.937 121.665 287.635C121.137 289.333 120.974 291.167 121.191 292.964C120.176 290.385 120 287.435 120.698 284.705C121.8 279.905 124.207 283.258 124.207 283.258Z" fill="white"/>
<path d="M363.152 208.737C346.854 203.108 325.742 216.343 311.445 224.302C290.261 236.416 269.696 250.075 249.864 265.206C233.262 277.558 221.734 290.176 217.645 314.386C216.935 325.168 216.558 335.95 217.645 339.091C219.878 346.15 284.186 415.712 316.332 419.524C348.479 423.335 304.456 328.221 308.386 320.616C312.315 313.01 347.536 289.099 352.945 291.27C358.353 293.44 431.143 345.568 436.899 334.75C455.3 300.022 396.198 220.119 363.152 208.737Z" fill="#68E1FD"/>
<path d="M440.046 313.734C440.046 313.734 437.552 329.88 425.995 326.951C414.439 324.021 362.775 273.923 353.046 276.764C343.316 279.605 305.022 306.993 305.022 306.993L308.473 325.504L356.178 295.999C356.178 295.999 411.278 340.556 429.881 339.056C448.485 337.556 440.046 313.734 440.046 313.734Z" fill="#68E1FD"/>
<path d="M321.349 407.824C316.52 407.383 311.953 404.824 307.719 402.107C302.238 398.577 296.801 394.907 291.392 391.237C279.715 383.375 268.503 374.53 257.839 364.767C249.414 357.002 240.772 349.503 232.536 341.438C226.809 335.827 221.154 329.598 217.181 322.027C216.818 329.88 216.775 336.691 217.558 339.144C219.791 346.203 284.098 415.765 316.245 419.577C324.438 420.547 327.671 415.094 328.033 406.307C325.957 407.532 323.649 408.056 321.349 407.824Z" fill="#68E1FD"/>
<path opacity="0.52" d="M440.046 313.734C440.046 313.734 437.552 329.88 425.995 326.951C414.439 324.021 362.775 273.923 353.046 276.764C343.316 279.605 305.022 306.993 305.022 306.993L308.473 325.504L356.178 295.999C356.178 295.999 411.278 340.556 429.881 339.056C448.485 337.556 440.046 313.734 440.046 313.734Z" fill="#505A63"/>
<path opacity="0.52" d="M321.349 407.824C316.52 407.383 311.953 404.824 307.719 402.107C302.238 398.577 296.801 394.907 291.392 391.237C279.715 383.375 268.503 374.53 257.839 364.767C249.414 357.002 240.772 349.503 232.536 341.438C226.809 335.827 221.154 329.598 217.181 322.027C216.818 329.88 216.775 336.691 217.558 339.144C219.791 346.203 284.098 415.765 316.245 419.577C324.438 420.547 327.671 415.094 328.033 406.307C325.957 407.532 323.649 408.056 321.349 407.824Z" fill="#505A63"/>
<path d="M357.193 259.983C370.743 259.983 381.727 250.289 381.727 238.33C381.727 226.372 370.743 216.678 357.193 216.678C343.643 216.678 332.659 226.372 332.659 238.33C332.659 250.289 343.643 259.983 357.193 259.983Z" fill="#505A63"/>
<path d="M262 330.568C276.599 330.568 288.434 320.132 288.434 307.257C288.434 294.383 276.599 283.946 262 283.946C247.402 283.946 235.567 294.383 235.567 307.257C235.567 320.132 247.402 330.568 262 330.568Z" fill="#505A63"/>
<path d="M305.022 295.187C312.029 295.187 317.71 291.3 317.71 286.505C317.71 281.71 312.029 277.823 305.022 277.823C298.015 277.823 292.335 281.71 292.335 286.505C292.335 291.3 298.015 295.187 305.022 295.187Z" fill="#757575"/>
<path d="M293.509 290.14C293.509 290.14 295.989 283.505 299.976 282.799C303.964 282.094 311.881 280.488 314.795 283.488C317.71 286.488 317.477 288.111 317.477 288.111C316.305 290.277 314.711 292.055 312.836 293.287C310.96 294.518 308.864 295.165 306.733 295.17C298.932 295.646 294.423 292.064 293.509 290.14Z" fill="#494949"/>
<path d="M305.486 291.252C309.939 291.252 313.548 287.981 313.548 283.946C313.548 279.912 309.939 276.641 305.486 276.641C301.033 276.641 297.424 279.912 297.424 283.946C297.424 287.981 301.033 291.252 305.486 291.252Z" fill="#090502"/>
<path d="M305.022 285.888C310.155 285.888 314.316 282.277 314.316 277.823C314.316 273.369 310.155 269.759 305.022 269.759C299.889 269.759 295.728 273.369 295.728 277.823C295.728 282.277 299.889 285.888 305.022 285.888Z" fill="#757575"/>
<path d="M295.8 278.194C296.032 282.482 300.15 285.888 305.08 285.888C310.01 285.888 314.374 282.358 314.374 277.823C314.362 277.222 314.274 276.627 314.113 276.058C309.981 282.094 302.02 281.229 295.8 278.194Z" fill="#494949"/>
<path d="M330.397 282.446C337.404 282.446 343.085 278.559 343.085 273.764C343.085 268.969 337.404 265.082 330.397 265.082C323.39 265.082 317.709 268.969 317.709 273.764C317.709 278.559 323.39 282.446 330.397 282.446Z" fill="#757575"/>
<path d="M318.884 277.417C318.884 277.417 321.364 270.782 325.351 270.076C329.339 269.37 337.256 267.765 340.17 270.765C343.085 273.764 342.852 275.388 342.852 275.388C341.68 277.554 340.086 279.332 338.211 280.564C336.335 281.795 334.239 282.442 332.108 282.446C324.307 282.905 319.798 279.323 318.884 277.417Z" fill="#494949"/>
<path d="M330.861 278.511C335.314 278.511 338.923 275.24 338.923 271.206C338.923 267.171 335.314 263.9 330.861 263.9C326.408 263.9 322.799 267.171 322.799 271.206C322.799 275.24 326.408 278.511 330.861 278.511Z" fill="#090502"/>
<path d="M330.397 273.147C335.53 273.147 339.691 269.536 339.691 265.082C339.691 260.629 335.53 257.018 330.397 257.018C325.264 257.018 321.102 260.629 321.102 265.082C321.102 269.536 325.264 273.147 330.397 273.147Z" fill="#757575"/>
<path d="M321.102 265.471C321.334 269.759 325.452 273.164 330.382 273.164C335.312 273.164 339.677 269.635 339.677 265.1C339.665 264.499 339.577 263.904 339.416 263.335C335.356 269.353 327.395 268.506 321.102 265.471Z" fill="#494949"/>
<path d="M278.197 263.106L287.622 256.383C288.142 256 288.739 255.797 289.347 255.797C289.956 255.797 290.552 256 291.073 256.383L291.203 256.471C291.69 256.844 292.089 257.364 292.362 257.98C292.634 258.596 292.772 259.288 292.76 259.987C292.748 260.687 292.588 261.371 292.295 261.973C292.002 262.575 291.586 263.075 291.087 263.424L281.532 270.059C281.005 270.422 280.407 270.605 279.802 270.586C279.196 270.567 278.606 270.349 278.095 269.953V269.953C277.628 269.576 277.246 269.061 276.985 268.457C276.724 267.853 276.592 267.178 276.602 266.495C276.612 265.813 276.764 265.144 277.043 264.552C277.321 263.959 277.718 263.462 278.197 263.106Z" fill="#505A63"/>
<path d="M301.687 246.113L311.112 239.389C311.633 239.006 312.229 238.804 312.838 238.804C313.446 238.804 314.042 239.006 314.563 239.389L314.694 239.477C315.18 239.851 315.579 240.37 315.852 240.986C316.124 241.603 316.262 242.294 316.25 242.994C316.238 243.693 316.078 244.377 315.785 244.98C315.492 245.582 315.076 246.081 314.577 246.43L305.022 253.065C304.495 253.429 303.897 253.611 303.292 253.593C302.686 253.574 302.096 253.355 301.586 252.959V252.959C301.118 252.582 300.736 252.068 300.475 251.464C300.214 250.859 300.082 250.185 300.092 249.502C300.102 248.819 300.254 248.151 300.533 247.558C300.811 246.966 301.208 246.469 301.687 246.113V246.113Z" fill="#505A63"/>
<path d="M339.43 245.601C339.981 245.707 350.827 253.153 350.827 253.153L376.42 234.236L364.82 225.678L339.43 245.565" fill="#090502"/>
<path d="M340.663 234.766L364.356 251.548C364.356 251.548 374.636 243.554 374.361 243.166C374.085 242.777 351.161 227.284 351.161 227.284L340.663 234.766Z" fill="#090502"/>
<path d="M340.663 231.907V234.766L344.23 233.884L340.663 231.907Z" fill="#090502"/>
<path d="M376.42 231.395V234.272L373.52 233.548L376.42 231.395Z" fill="#090502"/>
<path d="M374.361 240.289V243.148L372.838 244.401L372.345 242.354L374.361 240.289Z" fill="#090502"/>
<path d="M339.43 245.618V242.742L342.736 243.307L341.301 244.877L339.43 245.618Z" fill="#090502"/>
<path d="M339.43 242.742C339.981 242.848 350.827 250.295 350.827 250.295L376.42 231.395L364.82 222.837L339.43 242.724" fill="#757575"/>
<path d="M340.663 231.907L364.356 248.689C364.356 248.689 374.636 240.695 374.361 240.307C374.085 239.919 351.161 224.425 351.161 224.425L340.663 231.907Z" fill="#757575"/>
<path d="M251.662 321.233C254.913 321.233 257.549 319.329 257.549 316.98C257.549 314.632 254.913 312.728 251.662 312.728C248.411 312.728 245.775 314.632 245.775 316.98C245.775 319.329 248.411 321.233 251.662 321.233Z" fill="#C6172B"/>
<path d="M245.775 316.98V311.81H257.549V316.98" fill="#C6172B"/>
<path d="M251.662 316.063C254.913 316.063 257.549 314.159 257.549 311.81C257.549 309.461 254.913 307.557 251.662 307.557C248.411 307.557 245.775 309.461 245.775 311.81C245.775 314.159 248.411 316.063 251.662 316.063Z" fill="#F62435"/>
<path d="M253.33 304.928C256.581 304.928 259.217 303.024 259.217 300.675C259.217 298.326 256.581 296.422 253.33 296.422C250.078 296.422 247.443 298.326 247.443 300.675C247.443 303.024 250.078 304.928 253.33 304.928Z" fill="#D38A09"/>
<path d="M247.443 300.675V295.505H259.217V300.675" fill="#D38A09"/>
<path d="M253.33 299.758C256.581 299.758 259.217 297.854 259.217 295.505C259.217 293.156 256.581 291.252 253.33 291.252C250.078 291.252 247.443 293.156 247.443 295.505C247.443 297.854 250.078 299.758 253.33 299.758Z" fill="#F4BD21"/>
<path d="M271.469 304.928C274.72 304.928 277.356 303.024 277.356 300.675C277.356 298.326 274.72 296.422 271.469 296.422C268.218 296.422 265.582 298.326 265.582 300.675C265.582 303.024 268.218 304.928 271.469 304.928Z" fill="#0071BC"/>
<path d="M265.582 300.675V295.505H277.356V300.675" fill="#0071BC"/>
<path d="M271.469 299.758C274.72 299.758 277.356 297.854 277.356 295.505C277.356 293.156 274.72 291.252 271.469 291.252C268.218 291.252 265.582 293.156 265.582 295.505C265.582 297.854 268.218 299.758 271.469 299.758Z" fill="#29ABE2"/>
<path d="M269.555 319.574C272.806 319.574 275.442 317.67 275.442 315.322C275.442 312.973 272.806 311.069 269.555 311.069C266.304 311.069 263.668 312.973 263.668 315.322C263.668 317.67 266.304 319.574 269.555 319.574Z" fill="#39B54A"/>
<path d="M263.668 315.322V310.134H275.442V315.322" fill="#39B54A"/>
<path d="M269.555 314.386C272.806 314.386 275.442 312.482 275.442 310.134C275.442 307.785 272.806 305.881 269.555 305.881C266.304 305.881 263.668 307.785 263.668 310.134C263.668 312.482 266.304 314.386 269.555 314.386Z" fill="#3AD84A"/>
<path d="M330.339 163.192C343.256 163.192 353.728 154.217 353.728 143.146C353.728 132.074 343.256 123.099 330.339 123.099C317.422 123.099 306.951 132.074 306.951 143.146C306.951 154.217 317.422 163.192 330.339 163.192Z" fill="#68E1FD"/>
<path d="M330.354 140.04C340.027 140.04 347.87 136.129 347.87 131.305C347.87 126.481 340.027 122.57 330.354 122.57C320.68 122.57 312.837 126.481 312.837 131.305C312.837 136.129 320.68 140.04 330.354 140.04Z" fill="#974C26"/>
<path d="M331.528 131.517C332.978 129.17 334.283 126.699 335.733 123.929C337.589 120.4 339.329 116.782 340.909 113.059C342.391 109.75 343.657 106.304 344.694 102.753C345.847 98.9033 346.773 94.9581 347.464 90.9477C347.638 89.8889 347.797 88.8301 347.942 87.7713C347.942 87.2772 348.014 87.3302 348.014 87.4007C348.014 87.4713 348.014 87.0655 348.014 86.4831C348.174 84.3303 348.29 82.1774 348.305 80.0069C348.387 72.5286 347.203 65.1098 344.824 58.2136C338.501 69.3763 334.237 82.0723 332.326 95.4299C332.2 96.2298 332.084 97.0298 331.977 97.8298C331.977 97.8298 331.803 99.2944 331.731 99.8768L331.601 101.888C331.514 102.9 331.436 103.918 331.368 104.941C331.107 108.859 330.991 112.812 331.006 116.747C331.006 121.67 331.209 126.593 331.528 131.517ZM338.981 72.6836C339.406 72.0954 339.841 71.5072 340.286 70.919C340.165 71.4167 340.135 71.9409 340.199 72.4542C339.786 72.454 339.375 72.5314 338.981 72.6836V72.6836Z" fill="#999A1C"/>
<path d="M331.963 131.887C332.079 129.011 332.137 126.011 332.137 122.746C332.137 118.564 331.978 114.364 331.659 110.2C331.416 106.442 330.932 102.713 330.209 99.0474C329.473 95.0508 328.504 91.1233 327.309 87.2949C326.99 86.289 326.656 85.3008 326.308 84.3126C326.149 83.8538 326.178 83.8891 326.207 83.9597L325.844 83.148C325.018 81.2421 324.162 79.3363 323.22 77.5187C319.969 71.1754 315.68 65.715 310.619 61.4782C310.254 75.0269 312.302 88.5113 316.622 101.006C316.873 101.759 317.13 102.506 317.391 103.247L318.087 105.135L318.826 106.9C319.203 107.818 319.59 108.723 319.986 109.618C321.509 113.147 323.162 116.482 324.916 119.782C327.164 123.929 329.513 127.952 331.963 131.887ZM312.098 77.5011C312.195 76.7247 312.311 75.9541 312.446 75.1894C312.566 75.6853 312.774 76.1432 313.055 76.5306C312.704 76.7823 312.386 77.0976 312.113 77.4658L312.098 77.5011Z" fill="#999A1C"/>
<path d="M332.05 133.37C331.354 131.764 330.6 130.123 329.715 128.358C328.599 126.099 327.41 123.894 326.134 121.776C325.016 119.837 323.775 118.008 322.422 116.306C320.96 114.436 319.39 112.696 317.724 111.1L316.39 109.882C316.187 109.706 316.216 109.706 316.245 109.723L315.839 109.423C314.882 108.718 313.925 108.029 312.939 107.412C309.507 105.248 305.746 103.968 301.89 103.653C305.289 111.108 309.974 117.579 315.622 122.623L316.636 123.523L317.507 124.264L318.391 124.952L319.739 125.958C321.489 127.229 323.278 128.405 325.105 129.487C327.381 130.97 329.715 132.223 332.05 133.37ZM306.936 111.823C306.781 111.365 306.641 110.906 306.516 110.447C306.712 110.664 306.944 110.827 307.197 110.923C307.072 111.205 306.984 111.509 306.936 111.823V111.823Z" fill="#999A1C"/>
<path d="M331.528 131.517C332.978 129.17 334.283 126.699 335.733 123.929C337.589 120.4 339.329 116.782 340.909 113.059C342.391 109.75 343.657 106.304 344.694 102.753C345.847 98.9033 346.773 94.9581 347.464 90.9477C347.638 89.8889 347.797 88.8301 347.942 87.7713C347.942 87.2772 348.014 87.3302 348.014 87.4007C348.014 87.4713 348.014 87.0655 348.014 86.4831C348.174 84.3303 348.29 82.1774 348.305 80.0069C348.387 72.5286 347.203 65.1098 344.824 58.2136C338.501 69.3763 334.237 82.0723 332.326 95.4299C332.2 96.2298 332.084 97.0298 331.977 97.8298C331.977 97.8298 331.803 99.2944 331.731 99.8768L331.601 101.888C331.514 102.9 331.436 103.918 331.368 104.941C331.107 108.859 330.991 112.812 331.006 116.747C331.006 121.67 331.209 126.593 331.528 131.517ZM338.981 72.6836C339.406 72.0954 339.841 71.5072 340.286 70.919C340.165 71.4167 340.135 71.9409 340.199 72.4542C339.786 72.454 339.375 72.5314 338.981 72.6836V72.6836Z" fill="#999A1C"/>
<path d="M331.963 131.887C332.079 129.011 332.137 126.011 332.137 122.746C332.137 118.564 331.978 114.364 331.659 110.2C331.416 106.442 330.932 102.713 330.209 99.0474C329.473 95.0508 328.504 91.1233 327.309 87.2949C326.99 86.289 326.656 85.3008 326.308 84.3126C326.149 83.8538 326.178 83.8891 326.207 83.9597L325.844 83.148C325.018 81.2421 324.162 79.3363 323.22 77.5187C319.969 71.1754 315.68 65.715 310.619 61.4782C310.254 75.0269 312.302 88.5113 316.622 101.006C316.873 101.759 317.13 102.506 317.391 103.247L318.087 105.135L318.826 106.9C319.203 107.818 319.59 108.723 319.986 109.618C321.509 113.147 323.162 116.482 324.916 119.782C327.164 123.929 329.513 127.952 331.963 131.887ZM312.098 77.5011C312.195 76.7247 312.311 75.9541 312.446 75.1894C312.566 75.6853 312.774 76.1432 313.055 76.5306C312.704 76.7823 312.386 77.0976 312.113 77.4658L312.098 77.5011Z" fill="#999A1C"/>
<path d="M332.05 133.37C331.354 131.764 330.6 130.123 329.715 128.358C328.599 126.099 327.41 123.894 326.134 121.776C325.016 119.837 323.775 118.008 322.422 116.306C320.96 114.436 319.39 112.696 317.724 111.1L316.39 109.882C316.187 109.706 316.216 109.706 316.245 109.723L315.839 109.423C314.882 108.718 313.925 108.029 312.939 107.412C309.507 105.248 305.746 103.968 301.89 103.653C305.289 111.108 309.974 117.579 315.622 122.623L316.636 123.523L317.507 124.264L318.391 124.952L319.739 125.958C321.489 127.229 323.278 128.405 325.105 129.487C327.381 130.97 329.715 132.223 332.05 133.37ZM306.936 111.823C306.781 111.365 306.641 110.906 306.516 110.447C306.712 110.664 306.944 110.827 307.197 110.923C307.072 111.205 306.984 111.509 306.936 111.823V111.823Z" fill="#999A1C"/>
<path d="M357.555 205.596L359.6 210.22L364.835 206.937L363.617 202.191L357.555 205.596Z" fill="#F4C2AE"/>
<path d="M367.053 201.767C367.053 201.767 379.16 212.355 382.147 222.678C385.134 233.001 377.797 244.277 377.797 244.277" fill="#F7734F"/>
<path d="M380.306 356.244L386.382 352.714L383.917 344.879L379.161 347.244" fill="#1E3180"/>
<path d="M388.136 335.774H381.35C381.205 339.144 380.582 343.274 378.189 344.597C377.247 345.285 373.578 346.644 372.389 346.097C371.2 345.55 367.459 344.421 367.01 344.844C366.56 345.268 364.82 346.521 368.329 350.35C371.838 354.179 379.393 356.72 380.408 356.314C381.423 355.908 379.16 348.285 381.988 349.45C385.076 350.72 383.293 359.067 383.757 359.738C384.712 360.441 385.755 360.948 386.845 361.238C387.633 360.754 388.398 360.218 389.136 359.632C389.122 351.638 388.6 343.644 388.136 335.774Z" fill="#1E3180"/>
<path d="M344.375 374.667L350.32 370.784L347.565 363.108L342.896 365.72" fill="#1E3180"/>
<path d="M352.248 351.179L344.592 354.232C344.592 359.526 343.258 363.373 338.792 364.643C336.907 365.173 335.429 364.414 333.602 364.114C333.111 363.987 332.602 364.023 332.127 364.218C331.653 364.414 331.23 364.762 330.905 365.226C329.904 366.832 331.093 368.384 332.137 369.426C335.777 373.078 343.432 375.178 344.433 374.72C345.433 374.261 342.882 366.761 345.767 367.767C348.899 368.861 347.434 377.296 347.913 377.949C348.89 378.596 349.948 379.043 351.045 379.272C351.816 378.735 352.561 378.146 353.278 377.508C353.017 369.567 353.031 359.085 352.248 351.179Z" fill="#1E3180"/>
<path d="M375.028 235.754C378.365 251.513 380.898 267.507 382.611 283.646C385.337 309.516 391.413 340.891 390.891 341.88C390.369 342.868 385.526 349.538 374.39 346.15L361.601 252.377" fill="#BF4225"/>
<path d="M356.497 256.736C356.497 256.736 343.896 287.758 341.098 306.534C338.299 325.31 341.098 356.244 341.098 356.244C341.098 356.244 350.885 361.255 359.035 358.008C359.035 358.008 360.238 312.128 361.586 307.875C362.935 303.622 372.215 286.187 372.621 268.029C373.027 249.871 369.475 239.795 369.475 239.795" fill="#BF4225"/>
<path d="M353.394 235.436C352.698 229.19 352.046 222.537 353.583 216.414C356.075 212.961 358.888 209.87 361.964 207.202C361.964 207.202 366.154 201.079 369.953 204.555C374.172 208.402 379.378 232.684 378.233 242.23C377.174 251.053 370.982 253.083 363.863 255.342C361.45 256.093 358.983 256.56 356.497 256.736C355.25 249.677 354.191 242.583 353.394 235.436Z" fill="#FFB93E"/>
<path d="M351.219 188.162C351.219 188.162 352.48 205.067 354.917 206.39C357.353 207.714 361.659 204.149 362.37 201.238C363.08 198.326 362.369 197.814 359.89 197.708C357.41 197.603 359.165 197.585 357.657 196.879C354.467 195.414 359.02 185.815 351.219 188.162Z" fill="#FFE4D7"/>
<path d="M354.931 180.68C356.156 179.972 357.446 179.445 358.774 179.109C360.27 178.614 361.844 178.568 363.359 178.973C364.874 179.379 366.285 180.225 367.474 181.438C369.997 184.178 371.615 187.942 372.027 192.026C372.273 195.556 371.635 199.932 369.199 202.296C366.169 205.243 360.833 207.59 358.542 203.214C358.129 202.51 357.802 201.738 357.57 200.92C356.438 197.621 354.871 194.569 352.93 191.885C352.21 190.885 351.725 189.666 351.529 188.358C351.332 187.05 351.431 185.702 351.814 184.456C352.439 182.776 353.548 181.433 354.931 180.68V180.68Z" fill="#F7734F"/>
<path d="M331.572 217.208C331.955 216.775 332.435 216.49 332.951 216.389C333.467 216.289 333.997 216.377 334.472 216.643L334.182 215.972C334.172 215.891 334.172 215.807 334.182 215.725C333.558 215.337 333.95 213.961 334.776 214.12C336.226 214.402 337.14 214.596 337.792 216.361C338.258 217.775 338.612 219.241 338.851 220.737C340.767 223.452 342.91 225.918 345.245 228.096C345.97 228.819 344.94 230.054 344.215 229.348L343.925 229.066C343.876 229.196 343.803 229.31 343.713 229.402C343.623 229.493 343.517 229.559 343.403 229.595C343.455 229.72 343.482 229.857 343.485 229.996C343.487 230.135 343.463 230.273 343.416 230.4C343.369 230.527 343.299 230.639 343.212 230.729C343.124 230.819 343.021 230.884 342.91 230.919C343.374 231.466 343.853 231.978 344.36 232.525C345.042 233.354 344.056 234.448 343.331 233.778C342.606 233.107 341.707 232.313 340.909 231.572C341.257 232.013 341.635 232.454 341.983 232.913C342.62 233.742 341.591 234.995 340.953 234.166C339.213 231.854 337.371 229.666 335.487 227.531C334.459 227.125 333.46 226.617 332.5 226.013C331.427 225.343 329.948 224.407 329.919 222.713C330.07 220.735 330.64 218.839 331.572 217.208V217.208Z" fill="#FFE4D7"/>
<path d="M327.7 214.402C328.208 213.484 328.773 213.467 329.513 213.043L328.875 212.443C328.105 211.843 327.456 211.041 326.975 210.096C326.714 209.479 327.164 208.49 327.787 208.808C329.546 209.638 331.212 210.735 332.746 212.073V212.073C334.196 213.096 335.182 215.99 335.82 217.367C336.27 218.355 335.023 219.255 334.573 218.249L334.211 217.367C334.117 217.524 333.985 217.641 333.834 217.702C333.834 217.861 333.95 218.002 334.022 218.161C334.099 218.32 334.129 218.507 334.109 218.69C334.156 218.787 334.185 218.896 334.196 219.008C334.298 219.908 334.921 221.478 333.993 222.06C333.863 222.139 333.718 222.176 333.573 222.166L334.747 223.666C334.839 223.778 334.905 223.918 334.936 224.072C334.967 224.226 334.963 224.387 334.924 224.538C334.885 224.689 334.813 224.824 334.715 224.929C334.618 225.033 334.498 225.103 334.37 225.131C334.365 225.249 334.336 225.363 334.286 225.464C334.236 225.565 334.166 225.649 334.084 225.71C334.001 225.771 333.907 225.806 333.81 225.813C333.714 225.82 333.617 225.798 333.529 225.749C331.499 224.707 328.541 223.19 327.222 220.878C326.869 219.831 326.728 218.696 326.812 217.569C326.895 216.442 327.2 215.356 327.7 214.402Z" fill="#FFE4D7"/>
<path d="M339.749 220.949L350.03 231.978L350.624 226.896C351.061 223.843 351.831 220.876 352.916 218.072C359.644 222.149 364.211 232.525 361.398 240.854C358.904 245.195 355.598 249.501 351.828 250.101C344.056 251.336 333.152 232.913 333.152 232.913C333.63 228.237 339.749 220.949 339.749 220.949Z" fill="#F7734F"/>
<path d="M365.748 181.297C365.748 169.527 382.133 167.515 384.598 178.421C384.917 179.897 384.945 181.444 384.68 182.936C384.415 184.428 383.864 185.823 383.073 187.008C382.282 188.192 381.273 189.133 380.127 189.754C378.981 190.374 377.731 190.657 376.478 190.579C373.172 190.306 369.946 189.22 366.995 187.385" fill="#F7734F"/>
</g>
<defs>
<linearGradient id="paint0_linear_4_2" x1="148.088" y1="290.07" x2="198.87" y2="260.68" gradientUnits="userSpaceOnUse">
<stop stop-color="white" stop-opacity="0"/>
<stop offset="0.98" stop-color="#0800BF"/>
</linearGradient>
<linearGradient id="paint1_linear_4_2" x1="278.443" y1="189.944" x2="313.166" y2="169.864" gradientUnits="userSpaceOnUse">
<stop stop-color="white" stop-opacity="0"/>
<stop offset="0.98" stop-color="#0800BF"/>
</linearGradient>
<linearGradient id="paint2_linear_4_2" x1="360.224" y1="340.274" x2="399.7" y2="297.179" gradientUnits="userSpaceOnUse">
<stop stop-color="white" stop-opacity="0"/>
<stop offset="0.98" stop-color="#0800BF"/>
</linearGradient>
<linearGradient id="paint3_linear_4_2" x1="187.34" y1="462.263" x2="266.279" y2="392.289" gradientUnits="userSpaceOnUse">
<stop stop-color="white" stop-opacity="0"/>
<stop offset="0.98" stop-color="#0800BF"/>
</linearGradient>
<linearGradient id="paint4_linear_4_2" x1="85.1295" y1="382.36" x2="119.852" y2="362.28" gradientUnits="userSpaceOnUse">
<stop stop-color="white" stop-opacity="0"/>
<stop offset="0.98" stop-color="#0800BF"/>
</linearGradient>
<clipPath id="clip0_4_2">
<rect width="580" height="532" fill="white"/>
</clipPath>
</defs>
</svg>
