<svg width="575" height="285" viewBox="0 0 575 285" fill="none" xmlns="http://www.w3.org/2000/svg">
<path d="M12.5 4C12.5 4 12.8045 61.9244 39.5 74C69.999 87.7961 82.0422 24.314 114.5 32.5C159.056 43.7373 85.936 170.122 127 149.5C148.778 138.563 137.204 99.3957 161.5 97.5C190.717 95.2204 167.311 149.247 191 166.5C236.008 199.281 244.33 66.4815 299.5 74C365.341 82.9726 313.98 285.977 356 234.5C377.564 208.083 352.564 174.272 376 149.5C422.359 100.499 430.628 316.479 488 281C523.066 259.315 485.239 176.296 526 182.5C560.1 187.69 541.4 236.823 565.5 261.5C568.241 264.307 570.735 266.551 573 268.272C618.001 302.465 572.48 129.943 573 52C573.125 33.2552 574.556 22.6805 573 4C572.79 1.4758 572.505 -1.02423 572.149 -3.5C541.063 -219.272 -39.3679 -250.748 2.50002 -34C4.36104 -24.3656 7.931 -11.5144 10.2633 -3.5C11.5784 1.01882 12.5 4 12.5 4Z" fill="white"/>
</svg>
